# xmcd
#
# Track frame offsets: 
#        150
#        33463
#        67631
#        97425
#        129300
#        146580
#        177724
#        213632
#        246154
#        276013
#        306270
#        339889
#
# Disc length: 4700 seconds
#
# Revision: 0
# Processed by: cddbd v1.5.2PL0 Copyright (c) Steve Scherf et al.
# Submitted via: ExactAudioCopy v1.0b3
#
DISCID=b6125a0c
DTITLE=Various Artist - Clubworx - CD 1
DYEAR=1900
DGENRE=
TTITLE0=Yves Deruyter - Music Non Stop (Hard Wave Mix)
TTITLE1=Niels Van Gogh - Rushin' (Original Mix)
TTITLE2=Dumonde Vs. Lange - Memory (JamX and De Leon Mix)
TTITLE3=B.B.E. Vs. Emmanuel Top - Orion (B.B.E. Club Mix)
TTITLE4=Storm - We Love (Jan Driver Remix)
TTITLE5=Kai Tracid - Life Is Too Short (Thomas P. Heckmann Rmx)
TTITLE6=Dreamcatcher - I Don't Wanna Lose My Way (Tomcraft Rmx)
TTITLE7=Mario Piu Vs. Fabio MC - Away
TTITLE8=Longy - Spiegelsaal (Acid Mix)
TTITLE9=Phonekiller - Bite (Original Mix)
TTITLE10=MDB - Bubble Gum
TTITLE11=Mauro Picotto - Like This Like That (On Air Mix)
EXTD=
EXTT0=
EXTT1=
EXTT2=
EXTT3=
EXTT4=
EXTT5=
EXTT6=
EXTT7=
EXTT8=
EXTT9=
EXTT10=
EXTT11=
PLAYORDER=
